<?xml version="1.0" encoding="utf-8"?>
<!-- Generator: Adobe Illustrator 23.0.3, SVG Export Plug-In . SVG Version: 6.00 Build 0)  -->
<svg version="1.1" id="Camada_1" xmlns="http://www.w3.org/2000/svg" xmlns:xlink="http://www.w3.org/1999/xlink" x="0px" y="0px"
	 viewBox="0 0 18 18" style="enable-background:new 0 0 18 18;" xml:space="preserve">
<style type="text/css">
	.st0{fill-rule:evenodd;clip-rule:evenodd;fill:#0072B9;}
</style>
<title>search-gray</title>
<desc>Created with Sketch.</desc>
<g id="Index">
	<g id="guideline" transform="translate(-991.000000, -1060.000000)">
		<g id="Group-8" transform="translate(680.000000, 1039.000000)">
			<g transform="translate(308.000000, 18.000000)">
				<path id="Shape" class="st0" d="M15.5,14h-0.8l-0.3-0.3c1-1.1,1.6-2.6,1.6-4.2C16,5.9,13.1,3,9.5,3S3,5.9,3,9.5S5.9,16,9.5,16
					c1.6,0,3.1-0.6,4.2-1.6l0.3,0.3v0.8l5,5l1.5-1.5L15.5,14L15.5,14z M9.5,14C7,14,5,12,5,9.5C5,7,7,5,9.5,5C12,5,14,7,14,9.5
					C14,12,12,14,9.5,14L9.5,14z"/>
			</g>
		</g>
	</g>
</g>
</svg>
